<?xml version="1.0" encoding="UTF-8"?>
<svg id="Capa_1" xmlns="http://www.w3.org/2000/svg" version="1.1" viewBox="0 0 1466.9 387.3">
  <!-- Generator: Adobe Illustrator 30.2.1, SVG Export Plug-In . SVG Version: 2.1.1 Build 1)  -->
  <defs>
    <style>
      .st0 {
        fill: #453de0;
      }
    </style>
  </defs>
  <path class="st0" d="M201.1,81.1c0-10.8-.8-17.9-2.5-21.2-5-1.7-12.6-2.5-23-2.5-26.3,0-48.2,5.2-65.9,15.5l-.5,3.5c5,5.7,8.2,10,9.7,13s2.2,7.7,2.2,14c0,20-8.6,63.1-25.7,129.3-17.1,66.2-26.5,109.8-28.2,130.8,2.7,1,6.8,1.5,12.5,1.5,24,0,45.7-2.8,65.4-8.5,3-33.9,13.1-85.6,30.2-155,17.1-69.4,25.7-109.5,25.7-120.3Z"/>
  <path class="st0" d="M1439.9,140.7c-12.3,0-24.3,5-35.9,15-11.7,10-19.3,18-23,24,0-15.6-2-27.8-6-36.4-39.6,0-68.4,2.5-86.3,7.5l-.5,6.5,4.5,6c9.3,12.3,14,23.6,14,33.9s-4.5,29.8-13.5,71.4c-2.8,13.2-5.2,24.7-7.2,34.6l-23.4,13.8c-12.6,6.3-20,9.5-22,9.5s-4-6.4-4-19.2,2.5-34.3,7.5-64.4c5-30.1,11.6-59,20-86.6-26.3-9.3-47.2-14-62.9-14-3,8-4.8,12.3-5.5,13-17.3-9.6-35.3-14.5-53.9-14.5s-48.1,12.9-66.4,38.7c-18.3,25.8-27.4,61-27.4,105.6s.3,11.5.8,16.7l-25.8,15.2c-12.6,6.3-20,9.5-22,9.5s-4-6.4-4-19.2,2.5-34.3,7.5-64.4c5-30.1,11.6-59,20-86.6-26.3-9.3-47.2-14-62.9-14-3,8-4.8,12.3-5.5,13-17.3-9.6-35.3-14.5-53.9-14.5s-48.1,12.9-66.4,38.7c-18.3,25.8-27.4,61-27.4,105.6s.1,7.8.4,11.5c-8.3,7.1-19.9,13.3-22.6,14.6-2.6,1.2-9.8,2.4-14.8,2.4-15.6,0-38.8-5.5-69.4-16.5,2-2.7,14-19,35.9-49.2,22-30.1,41.9-56,59.9-77.6l9.5-11-4.5-16c-9.7,1-19.8,1.5-30.4,1.5l-95.3-4c-21.6,0-34.6,2.2-38.9,6.5-1,5.3-1.5,14.2-1.5,26.7s1.3,24.5,4,36.2c10.6-6,21.6-9.7,32.9-11.2,11.3-1.5,31.3-2.4,59.9-2.7-21.6,33.3-45.9,63.1-72.9,89.3-1.3-.3-3.2-.5-5.5-.5-7.4,0-14.7,2.6-21.7,7.9l-38,24.1c-12.6,6.3-20,9.5-22,9.5s-4-6.4-4-19.2,2.5-34.3,7.5-64.4c5-30.1,11.6-59,20-86.6-26.3-9.3-47.2-14-62.9-14-3,8-4.8,12.3-5.5,13-17.3-9.6-35.3-14.5-53.9-14.5s-48.1,12.9-66.4,38.7c-3.1,4.4-5.9,9-8.5,14l-12-.7c-22.6,0-47.2,3.5-73.9,10.5-14.3-14.6-33.6-23.8-57.9-27.4,24.3-7.7,44.2-19,59.9-33.9,15.6-15,23.5-33.8,23.5-56.4s-13-50.4-38.9-64.4C274.5,7,239.4,0,195.1,0S90.7,10.7,54.4,32.2C18.1,53.7,0,80.7,0,113.3s5.5,33.2,16.5,44.7c11,11.5,23,18.4,35.9,20.7,8-11.6,12.5-24,13.5-36.9-7.3-2-14.6-5.9-22-11.7-7.3-5.8-11-13.6-11-23.2,0-18.6,13.6-36.1,40.7-52.4,27.1-16.3,62-24.5,104.6-24.5s49.8,4.5,63.6,13.5c13.8,9,20.7,23.2,20.7,42.7s-4.8,35.7-14.5,48.7c-9.7,13-19.6,20.6-29.9,23-4,1-8.5,1.5-13.5,1.5-3,11-3.5,20.8-1.5,29.4h3.5c22.3,0,37.8,11.1,46.4,33.4-22,10.7-40.5,25.2-55.6,43.7-15.1,18.5-22.7,37.9-22.7,58.4s6,36.1,18,46.9c12,10.8,26.9,16.2,44.9,16.2,26.3,0,49.6-11,69.9-32.9,20.3-22,30.4-49.9,30.4-83.8s-2.2-27.1-6.5-39.4c12-3.7,25.5-5.5,40.7-5.5s10.7.1,15.4.4c-4.4,17.4-6.7,37-6.7,59s5.9,49.6,17.7,62.9c11.8,13.3,26.3,20,43.4,20s36.3-9.3,57.6-27.9c3.3,18.6,15.3,27.9,35.9,27.9s22.6-3.4,35.9-10.2c13.3-6.8,22.4-12.2,27.2-16.2,1.3-1,4.8-3.7,9.3-7,1.7,4.2,5.3,9.3,10.7,15.3,8,8.8,14.6,13.2,20,13.2s15-9.5,28.9-28.4c12.6,3.3,29.2,10.7,49.7,22.2,20.5,11.5,35.3,17.2,44.7,17.2s17.1-2.5,23.5-7.5c7.5-5.9,20.9-17.6,31.3-33.6,2.6,5.8,5.7,10.8,9.5,15.1,11.8,13.3,26.3,20,43.4,20s36.3-9.3,57.6-27.9c3.3,18.6,15.3,27.9,35.9,27.9s22.6-3.4,35.9-10.2c13.3-6.8,22.4-12.2,27.2-16.2,2.7-2.3,15.5-10.5,26.6-17.8,2.9,9.8,7.2,18,12.9,24.3,11.8,13.3,26.3,20,43.4,20s36.3-9.3,57.6-27.9c3.3,18.6,15.3,27.9,35.9,27.9s22.6-3.4,35.9-10.2c13.3-6.8,22.4-12.2,27.2-16.2,1.8-1.5,8-5.6,15.2-10.4-.9,6.4-1.4,11.1-1.4,14.1,0,9.5.3,15.6,1,18.2h3.5c34.6,0,57.7-2.3,69.4-7-.3-3-.5-8.1-.5-15.5,0-20.3,7.7-64.9,23-133.8,6.3-7,13.6-12,22-15,2.7,0,6.7,4.5,12,13.5,5.3,9,8.1,13.5,8.5,13.5,8-1.3,16.2-4.8,24.7-10.5,8.5-5.7,14.1-10.1,17-13.2,2.8-3.2,5.1-5.7,6.7-7.7,0-31.3-9-46.9-26.9-46.9ZM249.5,320.2c-7,16.5-15,24.7-24,24.7s-8.4-1.9-12.2-5.7c-3.8-3.8-5.7-9.9-5.7-18.2,0-14,5.6-27.1,16.7-39.4,11.1-12.3,22.9-20.8,35.2-25.5l.5,8.5c0,20.6-3.5,39.2-10.5,55.6ZM498.6,315.9c-10,6.3-19,9.5-26.9,9.5-12.3,0-18.5-14.1-18.5-42.4s4.2-54.1,12.7-77.6,18.7-35.2,30.7-35.2,15.5,2.2,25.5,6.5c-13.3,45.9-21.1,92.3-23.5,139.2ZM926.2,315.9c-10,6.3-19,9.5-26.9,9.5-12.3,0-18.5-14.1-18.5-42.4s4.2-54.1,12.7-77.6,18.7-35.2,30.7-35.2,15.5,2.2,25.5,6.5c-13.3,45.9-21.1,92.3-23.5,139.2ZM1165.8,315.9c-10,6.3-19,9.5-26.9,9.5-12.3,0-18.5-14.1-18.5-42.4s4.2-54.1,12.7-77.6,18.7-35.2,30.7-35.2,15.5,2.2,25.5,6.5c-13.3,45.9-21.1,92.3-23.5,139.2Z"/>
</svg>