<svg id="Capa_1" xmlns="http://www.w3.org/2000/svg" viewBox="0 0 413.2 387.3">
  <!-- Generator: Adobe Illustrator 30.2.1, SVG Export Plug-In . SVG Version: 2.1.1 Build 1)  -->
  <defs>
    <style>
      .st0 {
        fill: #453de0;
      }
    </style>
  </defs>
  <path class="st0" d="M201.1,81.1c0-10.8-.8-17.9-2.5-21.2-5-1.7-12.6-2.5-23-2.5-26.3,0-48.2,5.2-65.9,15.5l-.5,3.5c5,5.7,8.2,10,9.7,13,1.5,3,2.2,7.7,2.2,14,0,20-8.6,63.1-25.7,129.3-17.1,66.2-26.5,109.8-28.2,130.8,2.7,1,6.8,1.5,12.5,1.5,24,0,45.7-2.8,65.4-8.5,3-33.9,13.1-85.6,30.2-155,17.1-69.4,25.7-109.5,25.7-120.3Z"/>
  <path class="st0" d="M387.8,192.6c-22.6,0-47.2,3.5-73.9,10.5-14.3-14.6-33.6-23.8-57.9-27.4,24.3-7.7,44.2-19,59.9-33.9,15.6-15,23.5-33.8,23.5-56.4s-13-50.4-38.9-64.4C274.5,7,239.4,0,195.1,0S90.7,10.7,54.4,32.2C18.1,53.7,0,80.7,0,113.3s5.5,33.2,16.5,44.7c11,11.5,23,18.4,35.9,20.7,8-11.6,12.5-24,13.5-36.9-7.3-2-14.6-5.9-22-11.7-7.3-5.8-11-13.6-11-23.2,0-18.6,13.6-36.1,40.7-52.4,27.1-16.3,62-24.5,104.6-24.5s49.8,4.5,63.6,13.5c13.8,9,20.7,23.2,20.7,42.7s-4.8,35.7-14.5,48.7c-9.7,13-19.6,20.6-29.9,23-4,1-8.5,1.5-13.5,1.5-3,11-3.5,20.8-1.5,29.4h3.5c22.3,0,37.8,11.1,46.4,33.4-22,10.7-40.5,25.2-55.6,43.7-15.1,18.5-22.7,37.9-22.7,58.4s6,36.1,18,46.9,26.9,16.2,44.9,16.2c26.3,0,49.6-11,69.9-32.9,20.3-22,30.4-49.9,30.4-83.8s-2.2-27.1-6.5-39.4c12-3.7,25.5-5.5,40.7-5.5s27.2,1,36.2,3c3.3-6.7,5-15.8,5-27.4s-.3-4.7-1-7l-24.5-1.5ZM249.5,320.2c-7,16.5-15,24.7-24,24.7s-8.4-1.9-12.2-5.7c-3.8-3.8-5.7-9.9-5.7-18.2,0-14,5.6-27.1,16.7-39.4,11.1-12.3,22.9-20.8,35.2-25.5l.5,8.5c0,20.6-3.5,39.2-10.5,55.6Z"/>
</svg>